# Blender 4.1.0
# www.blender.org
mtllib マイクラ.mtl
o face
v -0.655780 7.976005 1.033398
v -0.655780 5.976005 1.033398
v -0.655779 7.976005 -0.966602
v -0.655779 5.976005 -0.966602
v 1.344220 7.976005 1.033398
v 1.344220 5.976005 1.033398
v 1.344221 7.976005 -0.966602
v 1.344221 5.976005 -0.966602
v 1.377645 5.976005 0.633398
v 1.377645 2.976005 0.633398
v 1.377645 5.976005 -0.566602
v 1.377645 2.976005 -0.566602
v 2.311697 5.976005 0.633398
v 2.311697 2.976005 0.633398
v 2.311697 5.976005 -0.566602
v 2.311697 2.976005 -0.566602
v -1.622355 5.976005 0.633398
v -1.622355 2.976005 0.633398
v -1.622355 5.976005 -0.566602
v -1.622355 2.976005 -0.566602
v -0.688303 5.976005 0.633398
v -0.688303 2.976005 0.633398
v -0.688303 5.976005 -0.566602
v -0.688303 2.976005 -0.566602
v -0.655017 2.976005 0.633398
v -0.655017 -0.023995 0.633398
v -0.655017 2.976005 -0.566602
v -0.655017 -0.023995 -0.566602
v 0.279035 2.976005 0.633398
v 0.279035 -0.023995 0.633398
v 0.279035 2.976005 -0.566602
v 0.279035 -0.023995 -0.566602
v 0.344983 2.976005 0.633398
v 0.344983 -0.023995 0.633398
v 0.344983 2.976005 -0.566602
v 0.344983 -0.023995 -0.566602
v 1.279035 2.976005 0.633398
v 1.279035 -0.023995 0.633398
v 1.279035 2.976005 -0.566602
v 1.279035 -0.023995 -0.566602
vn -0.0000 1.0000 -0.0000
vn -0.0000 -0.0000 -1.0000
vn 1.0000 -0.0000 -0.0000
vn -0.0000 -1.0000 -0.0000
vn -1.0000 -0.0000 -0.0000
vn -0.0000 -0.0000 1.0000
vt 0.122652 0.877469
vt 0.247652 0.877469
vt 0.247652 1.002468
vt 0.122652 1.002468
vt 0.372163 0.775288
vt 0.499117 0.777241
vt 0.495210 0.878804
vt 0.368257 0.876850
vt 0.367340 0.746287
vt 0.369870 0.871261
vt 0.244895 0.873791
vt 0.242365 0.748817
vt 0.248601 0.849007
vt 0.391179 0.847054
vt 0.385320 1.001351
vt 0.242742 1.003304
vt 0.124644 0.752913
vt 0.122318 0.875429
vt -0.002659 0.878024
vt -0.000332 0.755508
vt 0.251959 0.751283
vt 0.256862 0.876543
vt 0.131069 0.880299
vt 0.126166 0.755039
vt 0.687500 0.687500
vt 0.750000 0.687500
vt 0.750000 0.750000
vt 0.687500 0.750000
vt 0.749517 0.002057
vt 0.752248 0.188694
vt 0.685287 0.186637
vt 0.682556 0.000000
vt 0.563738 0.000000
vt 0.563738 0.187500
vt 0.501238 0.187500
vt 0.501238 0.000000
vt 0.125000 0.500000
vt 0.375000 0.500000
vt 0.375000 0.750000
vt 0.125000 0.750000
vt 0.625000 0.500000
vt 0.625000 0.750000
vt 0.623310 0.000000
vt 0.626151 0.187484
vt 0.563667 0.190325
vt 0.560826 0.001885
vt 0.563173 0.185067
vt 0.625694 0.185566
vt 0.625694 0.250871
vt 0.563173 0.250372
vt 0.624175 0.000000
vt 0.624618 0.186471
vt 0.561985 0.187725
vt 0.562216 0.000666
vt 0.375000 0.000000
vt 0.625000 0.000000
vt 0.625000 0.250000
vt 0.375000 0.250000
vt 0.562367 0.000000
vt 0.562367 0.187500
vt 0.500266 0.187500
vt 0.500266 0.000000
vt 0.752206 0.000000
vt 0.746074 0.183154
vt 0.680312 0.183154
vt 0.686445 0.000000
vt 0.875000 0.500000
vt 0.875000 0.750000
vt 0.499475 0.000000
vt 0.500034 0.186808
vt 0.437933 0.187384
vt 0.437374 0.000576
vt 0.370999 0.193265
vt 0.375094 -0.000094
vt 0.437594 0.000094
vt 0.433499 0.193454
vt 0.125000 0.687500
vt 0.187203 0.687500
vt 0.187203 0.750000
vt 0.436799 0.000000
vt 0.436799 0.197266
vt 0.376253 0.197266
vt 0.376253 0.000000
vt 0.375326 0.002255
vt 0.375260 0.188390
vt 0.311842 0.187206
vt 0.313980 0.001678
vt 0.298828 0.748047
vt 0.548828 0.748047
vt 0.548828 0.998047
vt 0.298828 0.998047
vt 0.250000 0.496094
vt 0.250000 0.697266
vt 0.193359 0.697266
vt 0.193359 0.496094
vt 0.072266 0.501953
vt 0.070313 0.701172
vt 0.003906 0.703125
vt 0.005859 0.503906
vt 0.048828 0.748047
vt 0.048828 0.998047
vt 0.121157 0.498110
vt 0.122983 0.695376
vt 0.062436 0.693296
vt 0.060611 0.496030
s 0
usemtl Material
f 1/1/1 5/2/1 7/3/1 3/4/1
f 4/5/2 3/6/2 7/7/2 8/8/2
f 8/9/3 7/10/3 5/11/3 6/12/3
f 6/13/4 2/14/4 4/15/4 8/16/4
f 2/17/5 1/18/5 3/19/5 4/20/5
f 6/21/6 5/22/6 1/23/6 2/24/6
usemtl Material.002
f 9/25/1 13/26/1 15/27/1 11/28/1
f 12/29/2 11/30/2 15/31/2 16/32/2
f 16/33/3 15/34/3 13/35/3 14/36/3
f 14/37/4 10/38/4 12/39/4 16/40/4
f 10/38/5 9/41/5 11/42/5 12/39/5
f 14/43/6 13/44/6 9/45/6 10/46/6
usemtl Material.003
f 17/47/1 21/48/1 23/49/1 19/50/1
f 20/51/2 19/52/2 23/53/2 24/54/2
f 24/55/3 23/56/3 21/57/3 22/58/3
f 22/37/4 18/38/4 20/39/4 24/40/4
f 18/59/5 17/60/5 19/61/5 20/62/5
f 22/63/6 21/64/6 17/65/6 18/66/6
usemtl Material.004
f 25/41/1 29/67/1 31/68/1 27/42/1
f 28/69/2 27/70/2 31/71/2 32/72/2
f 32/73/3 31/74/3 29/75/3 30/76/3
f 30/77/4 26/78/4 28/79/4 32/40/4
f 26/80/5 25/81/5 27/82/5 28/83/5
f 30/84/6 29/85/6 25/86/6 26/87/6
usemtl Material.005
f 33/88/1 37/89/1 39/90/1 35/91/1
f 36/92/2 35/93/2 39/94/2 40/95/2
f 40/96/3 39/97/3 37/98/3 38/99/3
f 38/37/4 34/38/4 36/39/4 40/40/4
f 34/100/5 33/88/5 35/91/5 36/101/5
f 38/102/6 37/103/6 33/104/6 34/105/6
o body
v -0.679972 5.976005 0.633398
v -0.679972 2.976005 0.633398
v -0.679972 5.976005 -0.566602
v -0.679972 2.976005 -0.566602
v 1.367513 5.976005 0.633398
v 1.367513 2.976005 0.633398
v 1.367513 5.976005 -0.566602
v 1.367513 2.976005 -0.566602
v 1.368413 5.976005 0.633398
v 1.368413 2.976005 0.633398
v 1.368413 5.976005 -0.566602
v 1.368413 2.976005 -0.566602
v -0.679072 5.976005 0.633398
v -0.679072 2.976005 0.633398
v -0.679072 5.976005 -0.566602
v -0.679072 2.976005 -0.566602
vn -0.0000 1.0000 -0.0000
vn -0.0000 -0.0000 -1.0000
vn 1.0000 -0.0000 -0.0000
vn -0.0000 -1.0000 -0.0000
vn -1.0000 -0.0000 -0.0000
vn -0.0000 -0.0000 1.0000
vt 0.625000 0.500000
vt 0.875000 0.500000
vt 0.875000 0.750000
vt 0.625000 0.750000
vt 0.624014 0.495380
vt 0.622113 0.688769
vt 0.502939 0.686261
vt 0.504840 0.492871
vt 0.375000 0.000000
vt 0.625000 0.000000
vt 0.625000 0.250000
vt 0.375000 0.250000
vt 0.125000 0.500000
vt 0.375000 0.500000
vt 0.375000 0.750000
vt 0.125000 0.750000
vt 0.447235 0.503958
vt 0.447265 0.685609
vt 0.310578 0.685495
vt 0.310547 0.503844
s 0
usemtl Material.001
f 41/106/7 45/107/7 47/108/7 43/109/7
f 44/110/8 43/111/8 47/112/8 48/113/8
f 48/114/9 47/115/9 45/116/9 46/117/9
f 46/118/10 42/119/10 44/120/10 48/121/10
f 42/119/11 41/106/11 43/109/11 44/120/11
f 46/122/12 45/123/12 41/124/12 42/125/12
f 49/106/7 51/109/7 55/108/7 53/107/7
f 52/110/8 56/113/8 55/112/8 51/111/8
f 56/114/11 54/117/11 53/116/11 55/115/11
f 54/118/10 56/121/10 52/120/10 50/119/10
f 50/119/9 52/120/9 51/109/9 49/106/9
f 54/122/12 50/125/12 49/124/12 53/123/12
